<svg data-v-b3f1de54="" data-v-fda2b58a="" xmlns="http://www.w3.org/2000/svg" xmlns:xlink="http://www.w3.org/1999/xlink" xml:space="preserve" viewBox="0 0 117 36" class="ss__custom__header__logo--desktop"><g data-v-b3f1de54="" class="text"><path data-v-b3f1de54="" d="M66.8,18.5C66.8,18.5,66.8,18.5,66.8,18.5c-0.1-0.1-0.1-0.1-0.2-0.1c0,0-0.1,0-0.1,0c0,0-0.1,0-0.1,0
      c-5.6,4.9-11.2,7.4-18.3,8c0,0-0.1,0-0.1,0c0,0-0.1,0.1-0.1,0.1c0,0,0,0.1,0,0.1c0,0,0,0.1,0,0.1l1,1.4c0,0,0,0.1,0.1,0.1
      c0,0,0.1,0,0.1,0l0,0c7.3-0.9,12.7-3.3,18.5-8.3c0,0,0.1-0.1,0.1-0.2c0-0.1,0-0.1,0-0.2L66.8,18.5z"></path><path data-v-b3f1de54="" d="M57.7,21.3h1.6c0.1,0,0.2-0.1,0.2-0.2V7.7c0-0.1-0.1-0.2-0.2-0.2h-1.6c-0.1,0-0.2,0.1-0.2,0.2v13.3
      C57.4,21.2,57.5,21.3,57.7,21.3z"></path><path data-v-b3f1de54="" d="M48.3,19.6c0,0,0.1,0,0.1,0h1.8c0,0,0.1,0,0.1,0c0,0,0.1-0.1,0.1-0.1l3.9-8.5c0,0,0-0.1,0-0.1s0-0.1,0-0.1
      c0,0-0.1-0.1-0.1-0.1c0,0-0.1,0-0.1,0h-1.8c0,0-0.1,0-0.1,0c0,0-0.1,0.1-0.1,0.1l-3.8,8.5c0,0,0,0.1,0,0.1S48.2,19.5,48.3,19.6
      C48.2,19.5,48.3,19.5,48.3,19.6z"></path><path data-v-b3f1de54="" d="M65,10.8C64.9,10.7,64.9,10.7,65,10.8c-0.1-0.1-0.2-0.1-0.2-0.1h-1.9c0,0-0.1,0-0.1,0c0,0-0.1,0.1-0.1,0.1c0,0,0,0.1,0,0.1
      s0,0.1,0,0.1l3.3,5.8c0,0,0,0.1,0.1,0.1c0,0,0.1,0,0.1,0h0h1.9c0,0,0.1,0,0.1,0c0,0,0.1-0.1,0.1-0.1c0,0,0-0.1,0-0.1
      c0,0,0-0.1,0-0.1L65,10.8z"></path><path data-v-b3f1de54="" d="M115.2,9.3C115.2,9.3,115.3,9.2,115.2,9.3c0.1-0.1,0.1-0.1,0.2-0.1c0,0,0-0.1,0-0.1c0,0,0-0.1,0-0.1l-0.9-1.3
      c0,0-0.1-0.1-0.1-0.1c0,0-0.1,0-0.1,0l-0.7,0.2c-3,0.8-5.4,1.5-11.1,1.4c-0.1,0-0.1,0-0.2,0.1c0,0.1-0.1,0.1-0.1,0.2v9.2
      c0,1.4-0.2,2.8-0.5,4.1c-0.2,0.9-0.5,1.8-0.8,2.7l-0.8,2.1c0,0,0,0.1,0,0.1c0,0,0,0.1,0,0.1c0,0.1,0.1,0.1,0.1,0.1l1.4,0.5
      c0,0,0.1,0,0.1,0c0,0,0.1,0,0.1,0c0.1,0,0.1-0.1,0.1-0.1l0.8-2.1c0.3-0.9,0.6-1.8,0.8-2.7l0.1-0.3c0.3-1.4,0.5-2.9,0.5-4.4v-7.4
      c0-0.1,0-0.1,0.1-0.2c0,0,0.1-0.1,0.2-0.1c5.2-0.1,7.5-0.7,10.6-1.7L115.2,9.3z"></path><path data-v-b3f1de54="" d="M98.3,17.9C98.3,17.9,98.3,18,98.3,17.9c0.1,0.1,0.2,0.1,0.2,0.1c0,0,0.1,0,0.1,0l1.4-0.9c0.1,0,0.1-0.1,0.1-0.1
      c0,0,0-0.1,0-0.1c0,0,0-0.1,0-0.1l-1.5-2.4c0,0,0-0.1,0-0.1c0,0,0-0.1,0-0.1c0,0,0-0.1,0-0.1c0,0,0-0.1,0.1-0.1l1.9-1.2
      c0,0,0,0,0.1-0.1c0,0,0-0.1,0-0.1c0,0,0-0.1,0-0.1c0,0,0-0.1,0-0.1l-0.6-1c0,0,0,0,0-0.1l-2.5-3.8c0-0.1-0.1-0.1-0.1-0.1
      c-0.1,0-0.1,0-0.2,0l-1.4,0.9c0,0,0,0-0.1,0.1c0,0,0,0.1,0,0.1c0,0,0,0.1,0,0.1c0,0,0,0.1,0,0.1l2,3.1c0,0,0,0.1,0,0.1
      c0,0,0,0.1,0,0.1c0,0,0,0.1,0,0.1c0,0,0,0.1-0.1,0.1l-1.9,1.2c0,0,0,0-0.1,0.1c0,0,0,0.1,0,0.1s0,0.1,0,0.1c0,0,0,0.1,0,0.1
      L98.3,17.9z"></path><path data-v-b3f1de54="" d="M101,19.3C101,19.3,101,19.3,101,19.3c0-0.1,0-0.1-0.1-0.2c0,0,0,0-0.1,0l-1.5-0.6c0,0-0.1,0-0.1,0c0,0-0.1,0-0.1,0
      c0,0-0.1,0-0.1,0.1c0,0,0,0,0,0.1l-3.5,8.9c0,0,0,0.1,0,0.1c0,0,0,0.1,0,0.1c0,0,0,0.1,0.1,0.1c0,0,0,0,0.1,0l1.5,0.6
      c0,0,0.1,0,0.1,0c0,0,0.1,0,0.1,0c0,0,0.1,0,0.1-0.1c0,0,0,0,0-0.1L101,19.3C101,19.4,101,19.4,101,19.3z"></path><path data-v-b3f1de54="" d="M116.5,27.5l-2.1-2.9c-0.3-0.4-0.5-0.8-0.8-1.3l-0.7-1.4c-0.3-0.6-0.5-1.1-0.7-1.7c0,0,0-0.1,0-0.1c0,0,0.1-0.1,0.1-0.1
      l3.4-1.4c0.1,0,0.1-0.1,0.1-0.1c0-0.1,0-0.1,0-0.2l-0.6-1.4c0,0,0-0.1-0.1-0.1c0,0,0,0-0.1,0c0,0-0.1,0-0.1,0c0,0-0.1,0-0.1,0
      l-3.1,1.3c0,0-0.1,0-0.1,0c0,0-0.1,0-0.1,0c0,0,0,0-0.1-0.1c0,0,0,0,0-0.1l-1-3.7c0,0,0,0,0-0.1c0,0,0,0,0-0.1c0,0,0,0,0.1-0.1
      c0,0,0,0,0.1,0c1.1-0.2,2.1-0.4,3.1-0.6l1-0.2c0,0,0.1,0,0.1,0c0,0,0.1-0.1,0.1-0.1c0,0,0-0.1,0-0.1c0,0,0-0.1,0-0.1l-0.8-1.4
      c0,0-0.1-0.1-0.1-0.1c0,0-0.1,0-0.1,0l-1,0.2c-2.5,0.6-5,0.9-7.6,0.9c0,0-0.1,0-0.1,0c0,0-0.1,0-0.1,0c0,0-0.1,0.1-0.1,0.2v0.6
      c0,0,0,0,0,0.1v14.8c0,0.1,0,0.1,0.1,0.2c0,0,0.1,0.1,0.2,0.1h4.7c0.1,0,0.1,0,0.2-0.1c0,0,0.1-0.1,0.1-0.2v-1.5
      c0-0.1,0-0.1-0.1-0.2c0,0-0.1-0.1-0.2-0.1h-2.8c-0.1,0-0.1,0-0.1-0.1c0,0-0.1-0.1-0.1-0.1V14.4c0,0,0-0.1,0-0.1
      c0,0,0.1-0.1,0.1-0.1c0.4,0,0.7,0,1.1-0.1c0,0,0.1,0,0.1,0c0,0,0.1,0.1,0.1,0.1l1.6,6.2c0.2,0.8,0.5,1.5,0.8,2.2l0.9,1.7
      c0.2,0.5,0.5,1,0.9,1.4l1.8,2.5c0,0,0,0.1,0.1,0.1c0,0,0.1,0,0.1,0c0,0,0,0,0.1,0l1.5-0.5c0,0,0.1,0,0.1-0.1c0,0,0-0.1,0.1-0.1
      C116.6,27.7,116.6,27.7,116.5,27.5C116.6,27.6,116.5,27.6,116.5,27.5z"></path><path data-v-b3f1de54="" d="M71.9,13.6h4.3c0.1,0,0.1,0,0.1,0.1c0,0,0.1,0.1,0.1,0.1v4.3c0,0.1,0,0.1,0.1,0.2s0.1,0.1,0.2,0.1h1.6c0.1,0,0.1,0,0.2-0.1
      s0.1-0.1,0.1-0.2v-4.3c0,0,0-0.1,0-0.1c0,0,0,0,0-0.1c0,0,0,0,0.1,0c0,0,0,0,0.1,0h4.4c0.1,0,0.1,0,0.2-0.1c0,0,0.1-0.1,0.1-0.2
      v-1.5c0-0.1,0-0.1-0.1-0.2s-0.1-0.1-0.2-0.1h-2.3c0,0,0,0,0,0L83.1,9c0,0,0.1-0.1,0.1-0.2s0-0.1-0.1-0.2l-1.3-1.1
      c0,0-0.1-0.1-0.2-0.1c-0.1,0-0.1,0-0.2,0.1l-2.3,2.7c0,0-0.1,0.1-0.1,0.2c0,0.1,0,0.1,0.1,0.2l1.2,1.1h-1.8c-0.1,0-0.1,0-0.1-0.1
      c0,0-0.1-0.1-0.1-0.1V7.7c0-0.1,0-0.1-0.1-0.2c0,0-0.1-0.1-0.2-0.1h-1.6c-0.1,0-0.1,0-0.2,0.1c0,0-0.1,0.1-0.1,0.2v3.8
      c0,0.1,0,0.1-0.1,0.1c0,0-0.1,0.1-0.1,0.1h-2l1.4-0.7c0.1,0,0.1-0.1,0.1-0.1c0,0,0-0.1,0-0.1c0,0,0-0.1,0-0.1l-1.6-3.1
      c0-0.1-0.1-0.1-0.1-0.1c-0.1,0-0.1,0-0.2,0l-1.5,0.7c-0.1,0-0.1,0.1-0.1,0.1c0,0.1,0,0.1,0,0.2l1.6,3.1c0,0,0,0.1,0.1,0.1h-2.1
      c-0.1,0-0.1,0-0.2,0.1c0,0-0.1,0.1-0.1,0.2v1.5c0,0.1,0,0.1,0.1,0.2C71.8,13.6,71.8,13.6,71.9,13.6z"></path><path data-v-b3f1de54="" d="M74.6,13.7C74.6,13.7,74.5,13.7,74.6,13.7c-0.1-0.1-0.1-0.1-0.2-0.1c0,0-0.1,0-0.1,0c0,0-0.1,0-0.1,0.1l-2.4,2.8
      c0,0-0.1,0.1-0.1,0.2c0,0,0,0.1,0,0.1c0,0,0,0.1,0.1,0.1l1.3,1.1c0,0,0.1,0.1,0.1,0.1c0,0,0.1,0,0.1,0c0,0,0.1,0,0.1-0.1l2.4-2.8
      c0,0,0-0.1,0-0.1c0,0,0-0.1,0-0.1c0,0,0-0.1,0-0.1c0,0,0-0.1-0.1-0.1L74.6,13.7z"></path><path data-v-b3f1de54="" d="M80.8,13.7C80.8,13.7,80.8,13.7,80.8,13.7c-0.1,0-0.1,0-0.2,0c0,0-0.1,0-0.1,0l-1.3,1c0,0,0,0-0.1,0.1c0,0,0,0.1,0,0.1
      c0,0,0,0.1,0,0.1c0,0,0,0.1,0,0.1l2,2.8c0,0,0.1,0.1,0.1,0.1c0,0,0.1,0,0.1,0c0,0,0.1,0,0.1,0l1.3-1c0,0,0.1-0.1,0.1-0.2
      c0-0.1,0-0.1,0-0.2L80.8,13.7C80.9,13.7,80.9,13.7,80.8,13.7z"></path><path data-v-b3f1de54="" d="M83.4,26.8l-3.5-1.6c0.8-0.6,1.6-1.2,2.3-2l1.1-1.1c0.1-0.1,0.1-0.1,0.2-0.2c0-0.1,0.1-0.2,0.1-0.3v-1.7
      c0-0.1-0.1-0.3-0.1-0.3c-0.1-0.1-0.2-0.1-0.3-0.1h-5.6l0.2-0.3c0,0,0-0.1,0-0.1c0,0,0-0.1,0-0.1c0,0,0-0.1-0.1-0.1c0,0-0.1,0-0.1,0
      h-2.1c0,0-0.1,0-0.1,0c0,0-0.1,0.1-0.1,0.1l-0.3,0.6h-2.7c-0.1,0-0.3,0.1-0.3,0.1c-0.1,0.1-0.1,0.2-0.1,0.3v1
      c0,0.1,0.1,0.3,0.1,0.3c0.1,0.1,0.2,0.1,0.3,0.1h1.2c0,0,0.1,0,0.1,0c0,0,0.1,0.1,0.1,0.1c0,0,0,0.1,0,0.1c0,0,0,0.1,0,0.1l-1.1,2
      c0,0,0,0.1,0,0.1c0,0,0,0.1,0,0.1c0,0,0,0.1,0,0.1c0,0,0,0,0.1,0.1l1.9,0.9l0.9,0.4L75,25.5c-0.4,0.2-0.7,0.3-1.1,0.4l-2,0.6
      c-0.1,0-0.1,0-0.2,0.1c0,0-0.1,0.1-0.1,0.1c0,0.1,0,0.1-0.1,0.2c0,0.1,0,0.1,0,0.2l0.4,1.2c0,0.1,0.1,0.1,0.1,0.1
      c0.1,0,0.1,0,0.2,0l1.8-0.6c0.7-0.2,1.4-0.5,2-0.8l1.5-0.6c0,0,0.1,0,0.1,0c0,0,0.1,0,0.1,0l3.8,1.8c0.1,0,0.2,0.1,0.3,0
      c0.1,0,0.2-0.1,0.3-0.1l1.3-1.1c0,0,0.1-0.1,0.1-0.1c0,0,0-0.1,0-0.1C83.6,26.9,83.5,26.9,83.4,26.8C83.5,26.8,83.5,26.8,83.4,26.8
      z M77.9,24.2c0,0-0.1,0-0.1,0c0,0-0.1,0-0.1,0l-2-0.9c-0.1,0-0.1-0.1-0.1-0.1c0,0-0.1-0.1-0.1-0.1c0-0.1,0-0.1,0-0.2
      c0-0.1,0-0.1,0.1-0.2l0.7-1.1c0-0.1,0.1-0.1,0.2-0.2c0.1,0,0.2-0.1,0.3-0.1h4.7L80.6,22c-0.5,0.5-1.1,1-1.8,1.5L77.9,24.2z"></path><path data-v-b3f1de54="" d="M90.3,24.5l-0.7-0.8c0,0-0.1-0.1-0.1-0.2c0-0.1,0-0.1,0.1-0.2l0.3-0.4c0.8-1.1,1.4-2.3,1.7-3.6l0.2-0.8
      c0.2-0.8,0.3-1.5,0.3-2.3v-5.3V9.4c0-0.1,0-0.1-0.1-0.2c0,0-0.1-0.1-0.2-0.1h-5.4V7.7c0-0.1,0-0.1-0.1-0.2c0,0-0.1-0.1-0.2-0.1
      h-1.6c-0.1,0-0.1,0-0.2,0.1c0,0-0.1,0.1-0.1,0.2v3.1c0,0.1,0,0.1,0.1,0.2s0.1,0.1,0.2,0.1h5.3c0,0,0.1,0,0.1,0c0,0,0,0.1,0,0.1V16
      c0,0.7-0.1,1.5-0.3,2.2l0,0.1c-0.3,1.1-0.7,2.2-1.4,3.2c0,0,0,0-0.1,0.1c0,0,0,0-0.1,0c0,0-0.1,0-0.1,0c0,0,0,0-0.1-0.1
      c-0.6-1-1.1-2-1.3-3.2l-0.1-0.3c-0.1-0.7-0.2-1.4-0.2-2.1V12c0-0.1,0-0.1-0.1-0.2c0,0-0.1-0.1-0.2-0.1h-1.6c0,0-0.1,0-0.1,0
      c0,0-0.1,0-0.1,0.1c0,0-0.1,0.1-0.1,0.2v4.3c0,0.7,0.1,1.4,0.2,2.2l0.2,0.8c0.3,1.4,0.9,2.6,1.7,3.8l0.3,0.4c0,0,0.1,0.1,0.1,0.2
      c0,0.1,0,0.1-0.1,0.2l-0.8,1l-2.1,2.3c0,0,0,0,0,0.1c0,0,0,0.1,0,0.1c0,0,0,0.1,0,0.1c0,0,0,0.1,0.1,0.1l1.2,1.1
      c0,0,0.1,0.1,0.2,0.1c0.1,0,0.1,0,0.2-0.1l2.7-2.9c0,0,0.1-0.1,0.1-0.1s0.1,0,0.1,0c0,0,0.1,0,0.1,0c0,0,0.1,0,0.1,0.1l2.6,2.9
      c0,0,0.1,0.1,0.2,0.1c0,0,0.1,0,0.1,0c0,0,0.1,0,0.1,0l1.2-1.1c0,0,0.1-0.1,0.1-0.2c0-0.1,0-0.1-0.1-0.2L90.3,24.5z"></path></g><path data-v-b3f1de54="" d="M18,0C8.1,0,0,8.1,0,18s8.1,18,18,18s18-8.1,18-18S27.9,0,18,0z M26.9,11.6c0,0.2-0.1,0.3-0.2,0.5
    c-0.1,0.1-0.3,0.2-0.4,0.2l-3.3,0.6v8.3c0,0.5,0.1,1,0.3,1.4l2.1,4c0.1,0.1,0.1,0.2,0.1,0.3c0,0.1,0,0.2-0.1,0.3
    c-0.1,0.1-0.1,0.2-0.3,0.2c-0.1,0.1-0.2,0.1-0.3,0.1H23c-0.1,0-0.3,0-0.4-0.1c-0.1-0.1-0.2-0.2-0.3-0.3l-2.1-3.9
    c-0.2-0.5-0.4-1-0.4-1.5v-8.4l-4.6,0.8v11.4c0,0.2,0,0.4-0.1,0.5c-0.1,0.2-0.2,0.3-0.4,0.4l-1.3,0.8c-0.1,0.1-0.3,0.1-0.4,0.1
    s-0.3,0-0.4-0.1c-0.1-0.1-0.2-0.2-0.3-0.3c-0.1-0.1-0.1-0.3-0.1-0.4v-12l-3.4,0.6c-0.1,0-0.2,0-0.4,0c-0.1,0-0.2-0.1-0.3-0.2
    C8.1,14.9,8,14.8,8,14.6c0-0.1-0.1-0.2,0-0.4l0.2-1.4c0-0.2,0.1-0.3,0.2-0.5c0.1-0.1,0.3-0.2,0.5-0.2l17.4-2.9c0.1,0,0.3,0,0.4,0
    c0.1,0,0.2,0.1,0.3,0.2C26.9,9.5,27,9.6,27,9.7c0,0.1,0.1,0.2,0,0.4L26.9,11.6z" class="logo"></path><path data-v-b3f1de54="" d="M26.1466 9.2187L8.77828 12.1304C8.60648 12.1584 8.44843 12.2415 8.32786 12.3671C8.2073 12.4926 8.13074 12.6539 8.10967 12.8267L7.93096 14.2748C7.91556 14.3986 7.92914 14.5242 7.97064 14.6418C8.01214 14.7594 8.08041 14.8657 8.17006 14.9524C8.25971 15.039 8.36829 15.1037 8.48722 15.1412C8.60615 15.1786 8.73216 15.188 8.8553 15.1684L12.2446 14.6014V26.6179C12.2447 26.7638 12.2844 26.907 12.3594 27.0322C12.4344 27.1574 12.542 27.2599 12.6707 27.3288C12.7993 27.3977 12.9443 27.4305 13.09 27.4236C13.2358 27.4166 13.377 27.3703 13.4986 27.2896L14.7896 26.4546C14.9421 26.3532 15.0674 26.2158 15.1544 26.0547C15.2415 25.8935 15.2876 25.7134 15.2887 25.5302V14.0931L19.9289 13.3166V21.7651C19.9285 22.282 20.0555 22.791 20.2986 23.2471L22.3599 27.1139C22.4182 27.2262 22.5069 27.3198 22.6159 27.3841C22.7248 27.4484 22.8497 27.4808 22.9762 27.4775H24.7355C24.8533 27.4781 24.9693 27.4485 25.0723 27.3913C25.1753 27.3342 25.2619 27.2516 25.3238 27.1513C25.3857 27.0511 25.4207 26.9366 25.4256 26.8189C25.4305 26.7012 25.4051 26.5842 25.3517 26.4792L23.2812 22.5076C23.0527 22.0602 22.9334 21.565 22.933 21.0626V12.8113L26.236 12.2567C26.4072 12.228 26.5646 12.1447 26.6845 12.0192C26.8045 11.8937 26.8806 11.7327 26.9015 11.5604L27.0802 10.1122C27.096 9.98758 27.0823 9.86098 27.0403 9.74257C26.9984 9.62416 26.9292 9.51723 26.8384 9.43036C26.7477 9.3435 26.6378 9.2791 26.5177 9.24234C26.3976 9.20558 26.2705 9.19749 26.1466 9.2187Z" class="pai"></path></svg>